<svg id="Capa_1" enable-background="new 0 0 512 512" height="512" viewBox="0 0 512 512" width="512" xmlns="http://www.w3.org/2000/svg"><g><g><g><g><g><g><g><g><g><g><g><g><g><g><g><circle cx="256" cy="256" fill="#ff7037" r="256"/></g></g></g></g></g></g></g></g></g></g></g></g></g></g><path d="m353.544 158.867-63.71-63.71-193.514 193.514 63.64 63.64 6.933 39.652 118.364 118.364c118.698-13.506 212.756-108.172 225.309-227.157l-117.44-117.44z" fill="#ff551a"/><g><g><path d="m256.292 415.099 16.1-47.118-16.1-48.643h-.001c-35.462 0-64.21-28.747-64.21-64.21 0-35.462 28.748-64.21 64.21-64.21h.001l16.1-41.812-16.1-53.949h-33.542v40.141c-9.686 2.706-18.892 6.547-27.47 11.383l-28.388-28.388-47.436 47.436 28.388 28.388c-4.836 8.577-8.677 17.783-11.383 27.469h-40.142v67.084h40.141c2.706 9.685 6.546 18.891 11.382 27.468l-28.387 28.388 47.436 47.436 28.387-28.387c8.578 4.836 17.785 8.677 27.471 11.383v40.14h33.543z" fill="#534dca"/><path d="m364.738 194.118 28.388-28.388-47.436-47.436-28.388 28.388c-8.577-4.836-17.783-8.677-27.468-11.383v-40.141h-33.542v95.761c35.461.001 64.208 28.748 64.208 64.21s-28.747 64.209-64.208 64.21v95.761h33.542v-40.141c9.685-2.706 18.891-6.547 27.468-11.383l28.387 28.387 47.436-47.436-28.388-28.388c4.836-8.577 8.677-17.783 11.383-27.468h40.141v-67.084h-40.141c-2.705-9.686-6.546-18.892-11.382-27.469z" fill="#463fc7"/></g><g><path d="m282.983 255.518-27.528 87.496c-48.323 0-87.496-39.173-87.496-87.496s39.173-87.496 87.496-87.496z" fill="#fff"/><path d="m334.237 255.128c0 43.049-34.898 77.946-77.946 77.946v-155.892c43.048 0 77.946 34.898 77.946 77.946z" fill="#eeeae7"/></g><path d="m342.952 255.518c0 48.323-39.173 87.496-87.496 87.496v-174.992c48.322 0 87.496 39.173 87.496 87.496z" fill="#eeeae7"/><path d="m255.456 260.41-26.201-30.954-21.093 17.619 47.294 55.875 7.364-26.636z" fill="#00dc80"/><path d="m255.457 302.952 102.796-124.726-21.046-17.344-81.751 99.528v42.54z" fill="#00cb76"/></g></g></svg>